<?xml version="1.0" encoding="UTF-8" standalone="no"?>
<!DOCTYPE svg PUBLIC "-//W3C//DTD SVG 1.1//EN" "http://www.w3.org/Graphics/SVG/1.1/DTD/svg11.dtd">
<svg width="100%" height="100%" viewBox="0 0 128 128" version="1.1" xmlns="http://www.w3.org/2000/svg" xmlns:xlink="http://www.w3.org/1999/xlink" xml:space="preserve" xmlns:serif="http://www.serif.com/" style="fill-rule:evenodd;clip-rule:evenodd;stroke-linejoin:round;stroke-miterlimit:1.5;">
    <g transform="matrix(8,0,0,8,0,0)">
        <path d="M6,10.576L6,13L10,13L10,10.58C11.819,9.786 13,7.982 13,5.997C13,3.255 10.743,0.997 8,0.997C5.257,0.997 3,3.255 3,5.997C3,7.982 4.181,9.786 6,10.58L6,10.576ZM8,3C9.646,3 11,4.354 11,6C11,7.646 9.646,9 8,9C6.354,9 5,7.646 5,6C5,4.354 6.354,3 8,3ZM7,14L7,15L9,15L9,14L7,14Z" style="fill:rgb(141,165,243);fill-rule:nonzero;"/>
    </g>
    <g transform="matrix(8,0,0,8,0,0)">
        <path d="M1,1L15,15" style="fill:none;stroke:rgb(255,114,118);stroke-width:2px;"/>
    </g>
    <g transform="matrix(-8,0,0,8,128,0)">
        <path d="M1,1L15,15" style="fill:none;stroke:rgb(255,114,118);stroke-width:2px;"/>
    </g>
</svg>
